<svg xmlns="http://www.w3.org/2000/svg" xmlns:xlink="http://www.w3.org/1999/xlink" width="177" height="132" viewBox="0 0 177 132"><defs><style>.a{fill:none;}.b{clip-path:url(#a);}.c{fill:#26cad3;}</style><clipPath id="a"><rect class="a" width="177" height="132"/></clipPath></defs><g class="b"><path class="c" d="M128.505,532.426h3.229a.524.524,0,0,1,.18.032c.4.111.579.3.61.424l5.7,19.956,5.805-20.026c.028-.056.044-.1.073-.154a.422.422,0,0,1,.325-.22h1a.246.246,0,0,1,.106.013.309.309,0,0,1,.232.2l6.041,20.418,5.444-19.945c.135-.526.342-.7.752-.7h2.34c.436,0,.648.176.686.456a.685.685,0,0,1-.038.328l-7.8,25.926a.694.694,0,0,1-.7.54h-2.226a.725.725,0,0,1-.672-.608l-5.173-17.1-5.086,17.2c-.151.463-.3.553-1,.553h-1.749c-.265,0-.527-.218-.674-.678L128.139,534.3a4.518,4.518,0,0,1-.3-1.24.6.6,0,0,1,.661-.632" transform="translate(-127.844 -428.358)"/><path class="c" d="M205.837,544.845a5.139,5.139,0,0,1-1.852.91c-4.641,1.478-6.382,3.551-6.375,6.219a5.713,5.713,0,0,0,.09.941c.463,2.626,2.353,4.121,5.344,4,.23-.018.448-.033.682-.058,2.5-.333,3.187-1.262,3.194-4.329l-.088-14.6a3.637,3.637,0,0,0-3.635-3.909c-1.968-.066-3.43.933-4.393,3.167a9.5,9.5,0,0,0-.321.9,1.863,1.863,0,0,1-1.514,1.517,2.194,2.194,0,0,1-.488.086,1.751,1.751,0,0,1-.566-.064,2.037,2.037,0,0,1-1.511-2.017c-.088-3.036,3.261-6.409,9.365-6.409,5.145,0,7.626,2.651,7.626,7.774l-.019,14.847c0,3.732-1.522,5.243-7.583,5.863-.809.071-1.606.1-2.421.1-5.423-.083-8.356-2.914-8.415-7.053-.059-3.857,2.052-6.4,8.5-8.72.533-.194,1.06-.372,1.588-.53a4.732,4.732,0,0,1,2.429-.311,1.043,1.043,0,0,1,.363,1.675" transform="translate(-158.577 -427.784)"/><path class="c" d="M293.774,544.845a5.105,5.105,0,0,1-1.833.91c-4.653,1.478-6.4,3.551-6.389,6.219a5.236,5.236,0,0,0,.089.941c.458,2.626,2.347,4.121,5.344,4,.226-.018.444-.033.678-.058,2.5-.333,3.2-1.262,3.205-4.329l-.093-14.6a3.645,3.645,0,0,0-3.638-3.909c-1.964-.066-3.431.933-4.39,3.167-.129.288-.229.593-.332.9a1.85,1.85,0,0,1-1.507,1.517,2.187,2.187,0,0,1-.489.086,1.732,1.732,0,0,1-.564-.064,2.019,2.019,0,0,1-1.5-2.017c-.084-3.036,3.249-6.409,9.364-6.409,5.144,0,7.626,2.651,7.613,7.774l-.005,14.847c0,3.732-1.53,5.243-7.585,5.863-.817.071-1.607.1-2.428.1-5.418-.083-8.351-2.914-8.414-7.053-.059-3.857,2.045-6.4,8.511-8.72.52-.194,1.053-.372,1.579-.53a4.728,4.728,0,0,1,2.427-.311,1.038,1.038,0,0,1,.362,1.675" transform="translate(-200.083 -427.784)"/><path class="c" d="M238.652,547.7V508.412a.56.56,0,0,1,.627-.514h3.264c.444,0,.678.231.678.741v24.533l10.3-11.5c.586-.665.73-.758,1.228-.758l2.839.012a.541.541,0,0,1,.551.562,1.117,1.117,0,0,1-.306.777l-9.586,10.906,8.542,10.811L258.7,546.3l.529.654a1.3,1.3,0,0,1,.3.622.763.763,0,0,1-.056.315l-.149.174a.428.428,0,0,1-.289.1h-4.356l-.089-.017a1.262,1.262,0,0,1-.518-.345l-.556-.612-10.29-13.2v13.584a.555.555,0,0,1-.523.63h-3.292c-.51,0-.755-.218-.755-.506" transform="translate(-180.15 -416.846)"/><path class="c" d="M320.953,526.319c0-.594.162-.772.7-.772h2.855v-2.9c-.017-1.211.3-1.8,1.861-3.135l.994-.845a5.459,5.459,0,0,0,.858-.83c.039-.059.106-.071.187-.09a.651.651,0,0,1,.687.563.694.694,0,0,1,.035.236l.011,7h4.921c.174,0,.295.15.295.458l0,1.393a.765.765,0,0,1-.018.108c-.112.265-.227.348-.293.348l-4.975-.011v17.891c0,3.171,1.425,4.778,3.664,4.85a7.9,7.9,0,0,0,.876-.032,4.41,4.41,0,0,1,.617-.012.955.955,0,0,1,.824.541,1.136,1.136,0,0,1,.124.379c.115.759-.556,1.4-2.908,1.812a7.787,7.787,0,0,1-1.138.1,6.946,6.946,0,0,1-1.442-.123c-3.268-.645-4.926-2.651-5.174-6.252a10.673,10.673,0,0,1-.044-1.069V527.844h-3.159a.454.454,0,0,1-.14-.095.59.59,0,0,1-.213-.452v-.977" transform="translate(-218.978 -421.467)"/><path class="c" d="M350.183,545.315c.114-8.838,5.625-14.247,11.955-14.115,6.093.134,11.251,5.326,11.461,14.115.212,9.294-5.783,14.906-12.44,14.384-6.16-.469-11.076-5.9-10.976-14.384m4.761-.02c.2,7.472,3.662,11.163,7.194,11.218a5.031,5.031,0,0,0,2.221-.471c2.546-1.2,4.763-5.194,4.409-11.115-.262-4.439-1.685-7.691-3.364-9.216a5.483,5.483,0,0,0-3.99-1.569c-3.5.12-6.648,3.794-6.47,11.153" transform="translate(-232.806 -427.782)"/><path class="c" d="M408.378,522.84a7.443,7.443,0,0,1,3.153-1.936,10.692,10.692,0,0,1,3.836-.649c5.286.077,9.265,4.4,9.4,12.647.182,10.116-5.27,16.018-13.314,15.919a14.132,14.132,0,0,1-4.434-.766c-3.4-1.159-4.44-2.809-4.44-5.919l.019-33.475c0-.483.326-.784.964-.784h3.018a.691.691,0,0,1,.613.759l.044,32.595c.01,2.645,1.909,4.521,4.952,4.395,3.757-.151,6.175-2.134,7.52-6.422a15.016,15.016,0,0,0,.544-4.776c-.022-.519-.05-1.043-.1-1.563-.5-6.244-3.306-9.2-7.14-9.05a5.066,5.066,0,0,0-2.49.542c-.587.285-.777.741-1.471.7a1.28,1.28,0,0,1-.677-2.219" transform="translate(-257.586 -416.836)"/><path class="c" d="M453.04,550.073v-26.15a.715.715,0,0,1,.393-.522.693.693,0,0,1,.174-.038h3.363c.393,0,.6.209.6.647v25.967a.623.623,0,0,1-.048.249.5.5,0,0,1-.46.429l-3.364-.014c-.421,0-.661-.23-.661-.567m-.534-34.219a2.757,2.757,0,1,1,2.755,2.771,2.77,2.77,0,0,1-2.755-2.771" transform="translate(-281.019 -419.295)"/><path class="c" d="M291.725,376.138a30.758,30.758,0,0,1-4.316,15.615l15.021-15.4L287.9,361.456a30.745,30.745,0,0,1,3.822,14.682M247.03,402.031l15.176,15.563,15.1-15.483a28.059,28.059,0,0,1-30.275-.081Zm-10.374-40.723-14.668,15.042,15.163,15.55a30.313,30.313,0,0,1-.5-30.592Zm39.723-11.667-14.172-14.532-14.251,14.613a27.761,27.761,0,0,1,28.423-.081Z" transform="translate(-172.439 -335.109)"/><path class="c" d="M258.758,393.818a2.406,2.406,0,1,0-2.407,2.557,2.487,2.487,0,0,0,2.407-2.557m-11.664.313s5.059-10.369,11.015-15.033c5.275-4.148,9.913-6.235,17.483-6.356,8.671-.147,14.8,3.746,16.454,8.962,2.548,8.069-3.724,11.642-7.294,10.875s-4.626-5.151-3.027-6.852a3.167,3.167,0,0,1,2.887-1.2,5.6,5.6,0,0,1,1.577.422s-2.333.845-2.333,2.686a2.506,2.506,0,0,0,2.274,2.326c.823,0,3.435-.491,2.676-4.732a5.676,5.676,0,0,0-6.13-4.936c-1.872.139-7.618,1.623-7.636,9.177-.011,8.019,7.711,11.5,13.219,10.731a14.046,14.046,0,0,0,10.118-6.781,8.253,8.253,0,0,0,1.385-5.223s1.44,3.811-.423,9.257-3.779,8.246-4.743,8.893-2.3.94-2.97.344c-.956-.839-.613-3.806-1.3-4.447s-2.133-.561-2.819,1.2-1.387,6.4-2.2,7.5c-1.379,1.835-3.929,2.888-7.777,3.523a25.114,25.114,0,0,1-14.8-2.047,27.832,27.832,0,0,1-11.022-9.1,58.679,58.679,0,0,1-4.608-9.177" transform="translate(-184.219 -352.911)"/></g></svg>