<svg xmlns="http://www.w3.org/2000/svg" width="100.88" height="100.88" viewBox="0 0 100.88 100.88"><defs><style>.a{fill:#103290;}.b{fill:#5ac4cf;}</style></defs><g transform="translate(0)"><path class="a" d="M102.712,86.271,92.792,66.45V13.044A5.044,5.044,0,0,0,87.748,8H75.979v3.363H87.748a1.681,1.681,0,0,1,1.681,1.681V65.165H15.451V13.044a1.681,1.681,0,0,1,1.681-1.681H28.9V8H17.132a5.044,5.044,0,0,0-5.044,5.044V66.45L2.177,86.271A1.681,1.681,0,0,0,2,87.023V95.43a3.363,3.363,0,0,0,3.363,3.363H99.518a3.363,3.363,0,0,0,3.363-3.363V87.023A1.681,1.681,0,0,0,102.712,86.271ZM90.072,68.528l8.407,16.813H6.4l8.407-16.813ZM47.4,88.7H57.484v1.681H47.4ZM5.363,95.43V88.7H44.033v1.681A3.363,3.363,0,0,0,47.4,93.748H57.484a3.363,3.363,0,0,0,3.363-3.363V88.7H99.518V95.43Z" transform="translate(-2 2.088)"/><path class="a" d="M10,50h3.363v3.363H10Z" transform="translate(3.451 30.704)"/><path class="a" d="M14,50h3.363v3.363H14Z" transform="translate(6.176 30.704)"/><path class="a" d="M18,50H65.077v3.363H18Z" transform="translate(8.901 30.704)"/><path class="a" d="M48,50h3.363v3.363H48Z" transform="translate(29.341 30.704)"/><path class="a" d="M52,50h3.363v3.363H52Z" transform="translate(32.067 30.704)"/><path class="a" d="M15,46h3.363v3.363H15Z" transform="translate(6.857 27.979)"/><path class="a" d="M11,46h3.363v3.363H11Z" transform="translate(4.132 27.979)"/><path class="a" d="M19,46h3.363v3.363H19Z" transform="translate(9.583 27.979)"/><path class="a" d="M23,46h3.363v3.363H23Z" transform="translate(12.308 27.979)"/><path class="a" d="M27,46h3.363v3.363H27Z" transform="translate(15.033 27.979)"/><path class="a" d="M31,46h3.363v3.363H31Z" transform="translate(17.759 27.979)"/><path class="a" d="M35,46h3.363v3.363H35Z" transform="translate(20.484 27.979)"/><path class="a" d="M39,46h3.363v3.363H39Z" transform="translate(23.209 27.979)"/><path class="a" d="M43,46h3.363v3.363H43Z" transform="translate(25.935 27.979)"/><path class="a" d="M47,46h3.363v3.363H47Z" transform="translate(28.66 27.979)"/><path class="a" d="M51,46h3.363v3.363H51Z" transform="translate(31.385 27.979)"/><path class="a" d="M15.363,55.715V15.363h5.044V12H13.681A1.681,1.681,0,0,0,12,13.681V57.4a1.681,1.681,0,0,0,1.681,1.681H77.572A1.681,1.681,0,0,0,79.253,57.4V13.681A1.681,1.681,0,0,0,77.572,12H70.847v3.363h5.044V55.715Z" transform="translate(4.813 4.813)"/><path class="b" d="M30.769,48.272v2.487a8.417,8.417,0,0,0,8.407,8.407h3.363a8.417,8.417,0,0,0,8.407-8.407V48.272A21.857,21.857,0,0,0,62.715,28.9V18.813c0-2.144-2.05-3.768-6.268-4.963a.8.8,0,0,0-.091-.024c-.852-.235-1.769-.447-2.739-.637l1.513-1.513a1.681,1.681,0,0,0,0-2.377L50.372,4.541a1.681,1.681,0,0,0-2.377,0L45.9,6.634V3.681A1.681,1.681,0,0,0,44.22,2H37.495a1.681,1.681,0,0,0-1.681,1.681V6.634l-2.09-2.09a1.681,1.681,0,0,0-2.377,0L26.588,9.3a1.681,1.681,0,0,0,0,2.377L28.1,13.193c-.97.19-1.886.4-2.739.637a.326.326,0,0,0-.092.024l-.126.04a.787.787,0,0,0-.089.029C20.989,15.114,19,16.708,19,18.813V28.9A21.857,21.857,0,0,0,30.769,48.272Zm16.813,2.487A5.044,5.044,0,0,1,42.539,55.8H39.176a5.044,5.044,0,0,1-5.044-5.044V49.689a21.689,21.689,0,0,0,13.451,0ZM57.671,17.831a4.888,4.888,0,0,1,1.607.982,4.888,4.888,0,0,1-1.607.982ZM32.535,8.11l2.8,2.8a1.681,1.681,0,0,0,1.908.336,8.348,8.348,0,0,1,.809-.336,1.681,1.681,0,0,0,1.128-1.6V5.363h3.363V9.314A1.681,1.681,0,0,0,43.667,10.9a8.558,8.558,0,0,1,.81.336,1.681,1.681,0,0,0,1.907-.336l2.8-2.791,2.381,2.381-2.8,2.8a1.681,1.681,0,0,0-.336,1.908,8.448,8.448,0,0,1,.336.814,1.681,1.681,0,0,0,1.6,1.123h3.951v3.363H50.357a1.681,1.681,0,0,0-1.586,1.123c-.017.05-.042.1-.059.145-.634.067-1.278.126-1.937.177a6.64,6.64,0,0,0,.807-3.126,6.725,6.725,0,1,0-13.451,0,6.64,6.64,0,0,0,.807,3.126c-.659-.05-1.3-.109-1.935-.177-.018-.047-.04-.091-.059-.14a1.681,1.681,0,0,0-1.587-1.128H27.407V17.132h3.951A1.681,1.681,0,0,0,32.945,16a8.347,8.347,0,0,1,.336-.809,1.681,1.681,0,0,0-.336-1.908l-2.791-2.8Zm4.96,10.7a3.363,3.363,0,1,1,3.472,3.351h-.219A3.363,3.363,0,0,1,37.495,18.813Zm-13.451-.982V19.8a4.926,4.926,0,0,1-1.609-.982,4.926,4.926,0,0,1,1.609-.982Zm-1.681,4.893a19.484,19.484,0,0,0,2.9,1.053c.032.01.062.017.092.024A44.556,44.556,0,0,0,31.4,24.977a75.436,75.436,0,0,0,9.459.562,75.6,75.6,0,0,0,9.464-.568,44.687,44.687,0,0,0,6.034-1.177.8.8,0,0,0,.091-.024c.045-.012.081-.027.126-.039a.5.5,0,0,0,.092-.03,19.194,19.194,0,0,0,2.69-.984V28.9a18.495,18.495,0,1,1-36.989,0Z" transform="translate(9.583 -2)"/><path class="b" d="M35.27,29.453a10.016,10.016,0,0,0,8.07-4.035L40.651,23.4a6.725,6.725,0,0,1-10.761,0L27.2,25.418a10.016,10.016,0,0,0,8.07,4.035Z" transform="translate(15.17 12.581)"/><path class="a" d="M58,30h3.363v3.363H58Z" transform="translate(36.155 17.077)"/><path class="a" d="M4,30H7.363v3.363H4Z" transform="translate(-0.637 17.077)"/><path class="a" d="M4,24H7.363v3.363H4Z" transform="translate(-0.637 12.989)"/><path class="a" d="M4,18H7.363v3.363H4Z" transform="translate(-0.637 8.901)"/><path class="a" d="M58,24h3.363v3.363H58Z" transform="translate(36.155 12.989)"/><path class="a" d="M58,18h3.363v3.363H58Z" transform="translate(36.155 8.901)"/><path class="a" d="M57,5h3.363V8.363H57Z" transform="translate(35.474 0.044)"/><path class="a" d="M5,5H8.363V8.363H5Z" transform="translate(0.044 0.044)"/><path class="a" d="M36,18h3.363v3.363H36Z" transform="translate(21.165 8.901)"/><path class="a" d="M26,18h3.363v3.363H26Z" transform="translate(14.352 8.901)"/></g></svg>