<svg xmlns="http://www.w3.org/2000/svg" width="99.127" height="99.127" viewBox="0 0 99.127 99.127"><defs><style>.a{fill:#103290;}.b{fill:#5ac4cf;}</style></defs><path class="a" d="M89.447,8.519H80.218V5.808a5.808,5.808,0,0,0-11.616,0V8.519H36.076V5.808a5.808,5.808,0,0,0-11.616,0V8.59a1.932,1.932,0,0,0-.516-.072H16.229a9.691,9.691,0,0,0-9.68,9.68V51.177a1.936,1.936,0,0,0,3.872,0V28.46h69.8a1.936,1.936,0,0,0,0-3.872h-69.8V18.2a5.815,5.815,0,0,1,5.808-5.808h7.714a1.94,1.94,0,0,0,.516-.072v2.492a5.808,5.808,0,0,0,11.616,0v-2.42H68.6v2.42a5.808,5.808,0,1,0,11.616,0v-2.42h9.229A5.815,5.815,0,0,1,95.255,18.2v73.57a3.486,3.486,0,0,1-6.972,0V86.761a1.936,1.936,0,0,0-1.936-1.936H63.826a1.936,1.936,0,0,0,0,3.872H84.411v3.072a7.313,7.313,0,0,0,.88,3.486H7.357A3.489,3.489,0,0,1,3.872,91.77V88.7H47.207a1.936,1.936,0,0,0,0-3.872H27.862a15.876,15.876,0,1,0-20.689,0H1.936A1.936,1.936,0,0,0,0,86.761v5.01a7.366,7.366,0,0,0,7.357,7.357H91.769a7.367,7.367,0,0,0,7.358-7.358V18.2A9.691,9.691,0,0,0,89.447,8.519ZM32.2,14.811a1.936,1.936,0,1,1-3.872,0v-9a1.936,1.936,0,1,1,3.872,0Zm44.143,0a1.936,1.936,0,0,1-3.872,0v-9a1.936,1.936,0,0,1,3.872,0ZM5.514,72.8a12,12,0,1,1,12,12A12.017,12.017,0,0,1,5.514,72.8Z"/><g transform="translate(87.364 24.588)"><path class="b" d="M454.545,127.567a1.935,1.935,0,1,0,.567,1.369A1.95,1.95,0,0,0,454.545,127.567Z" transform="translate(-451.24 -127)"/></g><g transform="translate(54.516 84.826)"><path class="b" d="M284.885,438.7a1.937,1.937,0,1,0,.567,1.369A1.948,1.948,0,0,0,284.885,438.7Z" transform="translate(-281.58 -438.13)"/></g><g transform="translate(36.446 58.857)"><path class="a" d="M195.6,304a7.357,7.357,0,1,0,7.357,7.357A7.366,7.366,0,0,0,195.6,304Zm0,10.842a3.485,3.485,0,1,1,3.485-3.485A3.489,3.489,0,0,1,195.6,314.842Z" transform="translate(-188.245 -304)"/></g><g transform="translate(54.516 58.857)"><path class="b" d="M288.935,304a7.357,7.357,0,1,0,7.357,7.357A7.366,7.366,0,0,0,288.935,304Zm0,10.842a3.485,3.485,0,1,1,3.485-3.485A3.489,3.489,0,0,1,288.935,314.842Z" transform="translate(-281.578 -304)"/></g><g transform="translate(72.586 58.857)"><path class="a" d="M382.269,304a7.357,7.357,0,1,0,7.357,7.357A7.366,7.366,0,0,0,382.269,304Zm0,10.842a3.485,3.485,0,1,1,3.485-3.485A3.489,3.489,0,0,1,382.269,314.842Z" transform="translate(-374.912 -304)"/></g><g transform="translate(18.376 38.722)"><path class="b" d="M102.269,200a7.357,7.357,0,1,0,7.357,7.357A7.366,7.366,0,0,0,102.269,200Zm0,10.842a3.485,3.485,0,1,1,3.485-3.485A3.489,3.489,0,0,1,102.269,210.842Z" transform="translate(-94.912 -200)"/></g><g transform="translate(54.516 38.722)"><path class="b" d="M288.935,200a7.357,7.357,0,1,0,7.357,7.357A7.366,7.366,0,0,0,288.935,200Zm0,10.842a3.485,3.485,0,1,1,3.485-3.485A3.489,3.489,0,0,1,288.935,210.842Z" transform="translate(-281.578 -200)"/></g><g transform="translate(72.586 38.722)"><path class="a" d="M382.269,200a7.357,7.357,0,1,0,7.357,7.357A7.365,7.365,0,0,0,382.269,200Zm0,10.842a3.485,3.485,0,1,1,3.485-3.485A3.489,3.489,0,0,1,382.269,210.842Z" transform="translate(-374.912 -200)"/></g><g transform="translate(36.446 38.722)"><path class="a" d="M195.6,200a7.357,7.357,0,1,0,7.357,7.357A7.366,7.366,0,0,0,195.6,200Zm0,10.842a3.485,3.485,0,1,1,3.485-3.485A3.489,3.489,0,0,1,195.6,210.842Z" transform="translate(-188.245 -200)"/></g><g transform="translate(9.912 67.511)"><path class="b" d="M65.7,349.267a1.936,1.936,0,0,0-2.738,0l-6.305,6.305L54.5,353.418a1.936,1.936,0,1,0-2.738,2.738l3.524,3.523a1.936,1.936,0,0,0,2.738,0l7.674-7.674A1.936,1.936,0,0,0,65.7,349.267Z" transform="translate(-51.194 -348.7)"/></g></svg>