<svg xmlns="http://www.w3.org/2000/svg" width="30" height="34.286" viewBox="0 0 30 34.286"><defs><style>.a{fill:#103290;}</style></defs><path class="a" d="M28.272,7.358,17.157.6a4.133,4.133,0,0,0-4.315,0L1.728,7.358a.571.571,0,0,0,0,.968L15,16.238,28.268,8.326a.571.571,0,0,0,0-.968Zm.927,2.989L16.071,18.173V33.161a1.072,1.072,0,0,0,1.61.966l10.189-6.193A4.512,4.512,0,0,0,30,24.071V10.832a.536.536,0,0,0-.8-.485ZM0,10.832V24.071a4.511,4.511,0,0,0,2.129,3.864l10.189,6.192a1.072,1.072,0,0,0,1.61-.966V18.173L.8,10.347A.536.536,0,0,0,0,10.832Z" transform="translate(0 0.005)"/></svg>