<svg xmlns="http://www.w3.org/2000/svg" width="71.91" height="95.88" viewBox="0 0 71.91 95.88"><defs><style>.a{fill:#5ac4cf;}.b{fill:#103290;}</style></defs><g transform="translate(0)"><path class="a" d="M122.762,152.617h-1.844a2.765,2.765,0,1,0,0,5.531h1.844a2.765,2.765,0,1,0,0-5.531Zm0,0" transform="translate(-96.026 -124.037)"/><path class="b" d="M199.063,152.617h-9.219a2.765,2.765,0,1,0,0,5.531h9.219a2.765,2.765,0,1,0,0-5.531Zm0,0" transform="translate(-152.045 -124.037)"/><path class="a" d="M122.762,211.691h-1.844a2.766,2.766,0,0,0,0,5.532h1.844a2.766,2.766,0,0,0,0-5.532Zm0,0" transform="translate(-96.026 -172.049)"/><path class="b" d="M199.063,211.691h-9.219a2.766,2.766,0,0,0,0,5.532h9.219a2.766,2.766,0,0,0,0-5.532Zm0,0" transform="translate(-152.045 -172.049)"/><path class="a" d="M122.762,270.77h-1.844a2.766,2.766,0,1,0,0,5.532h1.844a2.766,2.766,0,1,0,0-5.532Zm0,0" transform="translate(-96.026 -220.064)"/><path class="b" d="M199.063,270.77h-9.219a2.766,2.766,0,1,0,0,5.532h9.219a2.766,2.766,0,1,0,0-5.532Zm0,0" transform="translate(-152.045 -220.064)"/><path class="a" d="M122.762,329.848h-1.844a2.765,2.765,0,1,0,0,5.531h1.844a2.765,2.765,0,1,0,0-5.531Zm0,0" transform="translate(-96.026 -268.079)"/><path class="b" d="M199.063,329.848h-9.219a2.765,2.765,0,1,0,0,5.531h9.219a2.765,2.765,0,1,0,0-5.531Zm0,0" transform="translate(-152.045 -268.079)"/><path class="b" d="M63.612,6.453h-3.19A9.235,9.235,0,0,0,51.627,0H20.282a9.235,9.235,0,0,0-8.795,6.453H8.3a8.307,8.307,0,0,0-8.3,8.3V87.582a8.306,8.306,0,0,0,8.3,8.3H63.612a8.306,8.306,0,0,0,8.3-8.3V14.751A8.307,8.307,0,0,0,63.612,6.453ZM16.595,17.669v0a9.161,9.161,0,0,0,3.688.772H51.627a9.161,9.161,0,0,0,3.688-.772V79.285H16.595ZM20.282,5.532H51.627a3.688,3.688,0,1,1,0,7.375H20.282a3.688,3.688,0,1,1,0-7.375Zm46.1,82.051a2.769,2.769,0,0,1-2.766,2.766H8.3a2.769,2.769,0,0,1-2.766-2.766V14.751A2.769,2.769,0,0,1,8.3,11.985h2.766V82.051a2.766,2.766,0,0,0,2.766,2.766H58.081a2.766,2.766,0,0,0,2.766-2.766V11.985h2.766a2.769,2.769,0,0,1,2.766,2.766Zm0,0"/></g></svg>